<!-- Created with Inkscape (http://www.inkscape.org/) -->
<svg viewBox="-7.72 -7.75 1214.45 88.4"
   xmlns:svg="http://www.w3.org/2000/svg"
   xmlns="http://www.w3.org/2000/svg"
   version="1.0"
  
  
   id="svg2">
  <defs
     id="defs5" />
  <path
     d="M 23.5,72.47492 C 22.95,72.27297 20.673374,71.63927 18.440832,71.06671 C 11.638201,69.32209 5.4322805,64.50848 2.5634215,58.75143 C 1.1535396,55.92216 0,52.34566 0,50.80365 L 0,48 L 10.922448,48 L 21.844895,48 L 22.948904,51.34518 C 24.605153,56.36366 30.74821,58.73665 37.358549,56.91144 C 39.989014,56.18514 41.39725,55.08535 42.115386,53.19651 C 43.646311,49.16987 40.176458,46.83653 27.765905,43.54705 C 8.9619205,38.56296 2.9999995,33.63205 2.9999995,23.06401 C 2.9999995,8.90041 14.384061,0 32.5,0 C 48.880974,0 59.193874,6.8556 61.527803,19.29651 L 62.222582,23 L 51.611291,23 C 43.46582,23 41,22.69194 41,21.67431 C 41,20.94519 39.92927,19.34273 38.620601,18.1133 C 34.231659,13.9901 23.518928,15.61951 24.189315,20.30829 C 24.592945,23.13133 27.769795,24.57649 41.361622,28.12002 C 52.920517,31.13354 58.561371,34.13753 62.405764,39.32693 C 64.084274,41.59268 64.5,43.61037 64.5,49.49112 C 64.5,56.0513 64.177566,57.2876 61.455595,61.16419 C 56.129565,68.74946 45.209941,73.02946 31.5,72.90543 C 27.649999,72.8706 24.05,72.67687 23.5,72.47492 z M 450,71.39535 C 440.1735,68.7636 433.3281,62.64304 431.10378,54.5 C 429.23744,47.66751 428.85332,47.90565 441.23803,48.21725 C 451.57204,48.47725 452.50543,48.66088 452.84127,50.5 C 453.77859,55.63308 460.74088,58.73867 467.26976,56.93596 C 471.31599,55.81874 473.45252,53.00112 472.50859,50.02706 C 471.85685,47.97361 468.49177,46.56102 454.5,42.46741 C 449.55,41.01918 443.58674,38.72714 441.24831,37.37399 C 429.86049,30.78433 430.44766,13.37768 442.32962,5.31883 C 453.71849,-2.40559 476.43699,-1.37245 485.86946,7.29885 C 488.85194,10.04064 491.94894,16.60678 491.97804,20.25 L 492,23 L 481.5,23 C 471.70748,23 471,22.86679 471,21.02305 C 471,15.77135 456.52814,13.57534 454.62377,18.53807 C 453.20576,22.23333 457.07465,24.58214 469.21843,27.39846 C 477.45686,29.30908 485.92057,32.55978 488.67148,34.86989 C 496.68879,41.60253 497.19397,55.79813 489.70227,63.83534 C 482.46912,71.59518 463.92834,75.12567 450,71.39535 z M 672,37 L 672,2 L 683,2 L 694,2 L 694,27.5 L 694,53 L 710.5,53 L 727,53 L 727,62.5 L 727,72 L 699.5,72 L 672,72 L 672,37 z M 899,36.5 L 899,1 L 928.5,1 L 958,1 L 958,10.5 L 958,20 L 940,20 L 922,20 L 922,24 L 922,28 L 938.5,28 L 955,28 L 955,36.5 L 955,45 L 938.5,45 L 922,45 L 922,49.5 L 922,54 L 940,54 L 958,54 L 958,63 L 958,72 L 928.5,72 L 899,72 L 899,36.5 z M 1151,58.86323 L 1151,45.72647 L 1138.5,23.88225 C 1131.625,11.86792 1126,1.80447 1126,1.51901 C 1126,1.23355 1131.4294,1 1138.0654,1 L 1150.1308,1 L 1156.1008,13.63125 C 1159.3843,20.57844 1162.2668,26.06654 1162.5063,25.82701 C 1162.7458,25.58749 1165.6428,19.90342 1168.944,13.19576 L 1174.9462,1 L 1186.9731,1 C 1193.5879,1 1199,1.17283 1199,1.38407 C 1199,1.59531 1193.15,11.77248 1186,24 L 1173,46.23186 L 1173,59.11593 L 1173,72 L 1162,72 L 1151,72 L 1151,58.86323 z M 235,36.5 L 235,2 L 246,2 L 257,2 L 257,36.5 L 257,71 L 246,71 L 235,71 L 235,36.5 z"
     id="path2384"
     style="fill:#000000" />
</svg>
